<svg width="8" height="10" viewBox="0 0 8 10" fill="none" xmlns="http://www.w3.org/2000/svg">
<g id="&#240;&#159;&#166;&#134; icon &#34;document text&#34;">
<g id="Vector">
<mask id="path-1-inside-1_1_1098" fill="white">
<path d="M0.999982 7.49996V2.50006H2.06674e-06V7.49996H0.999982ZM5.49989 8.99994H2.49995V9.99992H5.49989V8.99994ZM2.49995 1.00009H4.23242V0.000113377H2.49995V1.00009ZM6.99986 3.64054V7.49996H7.99984V3.64054H6.99986ZM5.2359 1.38559L6.50337 2.52556L7.17236 1.78258L5.90489 0.642101L5.2359 1.38559ZM7.99984 3.64004C7.99984 3.24555 8.00984 2.89856 7.86985 2.58506L6.95686 2.99155C6.98986 3.06605 6.99986 3.15755 6.99986 3.64004H7.99984ZM6.50337 2.52556C6.86237 2.84906 6.92386 2.91706 6.95686 2.99155L7.87035 2.58456C7.73035 2.27057 7.46535 2.04657 7.17236 1.78258L6.50337 2.52556ZM4.23242 1.00009C4.64941 1.00009 4.72891 1.00759 4.79541 1.03309L5.1534 0.0996113C4.87391 -0.00738653 4.57491 0.000113377 4.23242 0.000113377V1.00009ZM5.90489 0.642101C5.65089 0.413105 5.43289 0.207109 5.1534 0.0996113L4.79541 1.03309C4.86191 1.05859 4.9259 1.10659 5.2359 1.38559L5.90489 0.642101ZM5.49989 9.99992C5.95738 9.99992 6.35038 10.0009 6.66387 9.95892C6.99136 9.91492 7.30586 9.81542 7.56035 9.56042L6.85337 8.85344C6.81537 8.89144 6.74737 8.93844 6.53037 8.96794C6.29938 8.99894 5.98538 8.99994 5.49989 8.99994V9.99992ZM6.99986 7.49996C6.99986 7.98546 6.99886 8.29945 6.96786 8.53044C6.93836 8.74744 6.89137 8.81544 6.85337 8.85344L7.56035 9.56042C7.81535 9.30543 7.91484 8.99143 7.95884 8.66394C8.00084 8.34995 7.99984 7.95746 7.99984 7.49996H6.99986ZM2.06674e-06 7.49996C2.06674e-06 7.95746 -0.000998023 8.35045 0.0410011 8.66394C0.0850003 8.99143 0.184499 9.30593 0.439493 9.56042L1.14648 8.85344C1.10848 8.81544 1.06148 8.74744 1.03198 8.53044C1.00098 8.29995 0.999982 7.98546 0.999982 7.49996H2.06674e-06ZM2.49995 8.99994C2.01446 8.99994 1.70047 8.99894 1.46947 8.96794C1.25248 8.93844 1.18448 8.89144 1.14648 8.85344L0.439493 9.56042C0.694488 9.81542 1.00848 9.91492 1.33598 9.95892C1.64997 10.0009 2.04246 9.99992 2.49995 9.99992V8.99994ZM0.999982 2.50006C0.999982 2.01457 1.00098 1.70058 1.03198 1.46958C1.06148 1.25259 1.10848 1.18459 1.14648 1.14659L0.439493 0.439605C0.184499 0.6946 0.0850003 1.00859 0.0410011 1.33609C-0.000998023 1.65008 2.06674e-06 2.04257 2.06674e-06 2.50006H0.999982ZM2.49995 0.000113377C2.04246 0.000113377 1.64947 -0.000886594 1.33598 0.0411126C1.00848 0.0851117 0.693988 0.18461 0.439493 0.439605L1.14648 1.14659C1.18448 1.10859 1.25248 1.06159 1.46947 1.03209C1.69997 1.00109 2.01446 1.00009 2.49995 1.00009V0.000113377Z"/>
</mask>
<path d="M0.999982 7.49996V2.50006H2.06674e-06V7.49996H0.999982ZM5.49989 8.99994H2.49995V9.99992H5.49989V8.99994ZM2.49995 1.00009H4.23242V0.000113377H2.49995V1.00009ZM6.99986 3.64054V7.49996H7.99984V3.64054H6.99986ZM5.2359 1.38559L6.50337 2.52556L7.17236 1.78258L5.90489 0.642101L5.2359 1.38559ZM7.99984 3.64004C7.99984 3.24555 8.00984 2.89856 7.86985 2.58506L6.95686 2.99155C6.98986 3.06605 6.99986 3.15755 6.99986 3.64004H7.99984ZM6.50337 2.52556C6.86237 2.84906 6.92386 2.91706 6.95686 2.99155L7.87035 2.58456C7.73035 2.27057 7.46535 2.04657 7.17236 1.78258L6.50337 2.52556ZM4.23242 1.00009C4.64941 1.00009 4.72891 1.00759 4.79541 1.03309L5.1534 0.0996113C4.87391 -0.00738653 4.57491 0.000113377 4.23242 0.000113377V1.00009ZM5.90489 0.642101C5.65089 0.413105 5.43289 0.207109 5.1534 0.0996113L4.79541 1.03309C4.86191 1.05859 4.9259 1.10659 5.2359 1.38559L5.90489 0.642101ZM5.49989 9.99992C5.95738 9.99992 6.35038 10.0009 6.66387 9.95892C6.99136 9.91492 7.30586 9.81542 7.56035 9.56042L6.85337 8.85344C6.81537 8.89144 6.74737 8.93844 6.53037 8.96794C6.29938 8.99894 5.98538 8.99994 5.49989 8.99994V9.99992ZM6.99986 7.49996C6.99986 7.98546 6.99886 8.29945 6.96786 8.53044C6.93836 8.74744 6.89137 8.81544 6.85337 8.85344L7.56035 9.56042C7.81535 9.30543 7.91484 8.99143 7.95884 8.66394C8.00084 8.34995 7.99984 7.95746 7.99984 7.49996H6.99986ZM2.06674e-06 7.49996C2.06674e-06 7.95746 -0.000998023 8.35045 0.0410011 8.66394C0.0850003 8.99143 0.184499 9.30593 0.439493 9.56042L1.14648 8.85344C1.10848 8.81544 1.06148 8.74744 1.03198 8.53044C1.00098 8.29995 0.999982 7.98546 0.999982 7.49996H2.06674e-06ZM2.49995 8.99994C2.01446 8.99994 1.70047 8.99894 1.46947 8.96794C1.25248 8.93844 1.18448 8.89144 1.14648 8.85344L0.439493 9.56042C0.694488 9.81542 1.00848 9.91492 1.33598 9.95892C1.64997 10.0009 2.04246 9.99992 2.49995 9.99992V8.99994ZM0.999982 2.50006C0.999982 2.01457 1.00098 1.70058 1.03198 1.46958C1.06148 1.25259 1.10848 1.18459 1.14648 1.14659L0.439493 0.439605C0.184499 0.6946 0.0850003 1.00859 0.0410011 1.33609C-0.000998023 1.65008 2.06674e-06 2.04257 2.06674e-06 2.50006H0.999982ZM2.49995 0.000113377C2.04246 0.000113377 1.64947 -0.000886594 1.33598 0.0411126C1.00848 0.0851117 0.693988 0.18461 0.439493 0.439605L1.14648 1.14659C1.18448 1.10859 1.25248 1.06159 1.46947 1.03209C1.69997 1.00109 2.01446 1.00009 2.49995 1.00009V0.000113377Z" fill="black"/>
<path d="M4.79541 1.03309L4.32856 0.854056L5.26222 1.21221L4.79541 1.03309ZM6.46632 1.81948L6.13133 2.19147L6.87442 2.86066L7.20941 2.48866L6.46632 1.81948ZM7.61693 3.24524L8.07343 3.04174L7.66627 2.12838L7.20978 2.33188L7.61693 3.24524ZM4.50759 0.387481L4.32859 0.853972L5.26222 1.21221L5.44122 0.745723L4.50759 0.387481ZM7.56041 8.85338L7.20692 8.49988L6.49981 9.20699L6.85331 9.56048L7.56041 8.85338ZM1.14654 9.56048L1.50003 9.20699L0.792926 8.49988L0.439433 8.85338L1.14654 9.56048ZM0.999982 2.00006H2.06674e-06V3.00006H0.999982V2.00006ZM2.06674e-06 7.99996H0.999982V6.99996H2.06674e-06V7.99996ZM1.99995 8.99994V9.99992H2.99995V8.99994H1.99995ZM5.99989 9.99992V8.99994H4.99989V9.99992H5.99989ZM4.73242 1.00009V0.000113377H3.73242V1.00009H4.73242ZM1.99995 0.000113377V1.00009H2.99995V0.000113377H1.99995ZM6.99986 7.99996H7.99984V6.99996H6.99986V7.99996ZM6.87495 2.86013L7.54393 2.11714L6.80079 1.44801L6.1318 2.191L6.87495 2.86013ZM5.5332 0.30766L4.86421 1.05114L5.60758 1.72003L6.27657 0.976542L5.5332 0.30766ZM5.26225 1.21213L5.62025 0.278649L4.68655 -0.0794258L4.32856 0.854056L5.26225 1.21213ZM7.91391 9.20687L7.20692 8.49988L6.49981 9.20699L7.2068 9.91398L7.91391 9.20687ZM0.793047 9.91398L1.50003 9.20699L0.792926 8.49988L0.0859401 9.20687L0.793047 9.91398ZM1.50003 0.793037L0.793047 0.0860513L0.08594 0.793158L0.792926 1.50014L1.50003 0.793037ZM7.86985 2.58506L8.78294 2.1773L8.37563 1.26523L7.4631 1.67152L7.86985 2.58506ZM6.99986 3.64054V2.64054H5.99986V3.64054H6.99986ZM7.99984 3.64054H8.99984V2.64054H7.99984V3.64054ZM5.2359 1.38559L4.56693 2.12888L4.56718 2.1291L5.2359 1.38559ZM6.50337 2.52556L7.1728 1.78268L7.17209 1.78205L6.50337 2.52556ZM7.17236 1.78258L7.84174 1.03966L7.84124 1.03921L7.17236 1.78258ZM5.90489 0.642101L5.23527 1.38481L5.236 1.38547L5.90489 0.642101ZM7.99984 3.64004V4.64004H8.99984V3.64004H7.99984ZM6.99986 3.64004H5.99986V4.64004H6.99986V3.64004ZM7.87035 2.58456L8.27732 3.498L9.191 3.09092L8.78368 2.17734L7.87035 2.58456ZM5.1534 0.0996113L5.51238 -0.833735L5.51092 -0.834293L5.1534 0.0996113ZM6.66387 9.95892L6.79665 10.9501L6.79702 10.95L6.66387 9.95892ZM7.56035 9.56042L6.85325 8.85332L6.85255 8.85401L7.56035 9.56042ZM6.53037 8.96794L6.66338 9.95905L6.66508 9.95882L6.53037 8.96794ZM6.96786 8.53044L7.95875 8.66515L7.95898 8.66345L6.96786 8.53044ZM7.95884 8.66394L8.94994 8.7971L8.95002 8.79652L7.95884 8.66394ZM0.0410011 8.66394L-0.950144 8.79673L-0.950094 8.7971L0.0410011 8.66394ZM0.439493 9.56042L1.1466 8.85332L1.14591 8.85262L0.439493 9.56042ZM1.03198 8.53044L0.0409036 8.66374L0.041096 8.66515L1.03198 8.53044ZM1.46947 8.96794L1.33477 9.95882L1.33647 9.95905L1.46947 8.96794ZM1.33598 9.95892L1.20282 10.95L1.2034 10.9501L1.33598 9.95892ZM1.03198 1.46958L0.0410946 1.33488L0.0408665 1.33658L1.03198 1.46958ZM0.439493 0.439605L1.1466 1.14671L1.14729 1.14602L0.439493 0.439605ZM0.0410011 1.33609L-0.950094 1.20293L-0.950172 1.20351L0.0410011 1.33609ZM1.33598 0.0411126L1.20319 -0.950032L1.20282 -0.949983L1.33598 0.0411126ZM1.46947 1.03209L1.33618 0.0410149L1.33477 0.0412073L1.46947 1.03209ZM1.99998 7.49996V2.50006H-1.77622e-05V7.49996H1.99998ZM-0.999998 2.50006V7.49996H1V2.50006H-0.999998ZM5.49989 7.99993H2.49995V9.99994H5.49989V7.99993ZM2.49995 10.9999H5.49989V8.99992H2.49995V10.9999ZM2.49995 2.00009H4.23242V9.35174e-05H2.49995V2.00009ZM4.23242 -0.999887H2.49995V1.00011H4.23242V-0.999887ZM5.99986 3.64054V7.49996H7.99986V3.64054H5.99986ZM8.99984 7.49996V3.64054H6.99984V7.49996H8.99984ZM7.99984 2.64054H6.99986V4.64054H7.99984V2.64054ZM4.56718 2.1291L5.83465 3.26908L7.17209 1.78205L5.90462 0.642073L4.56718 2.1291ZM7.84124 1.03921L6.57377 -0.101266L5.236 1.38547L6.50348 2.52594L7.84124 1.03921ZM8.99984 3.64004C8.99984 3.32408 9.0291 2.72853 8.78294 2.1773L6.95676 2.99282C6.99059 3.06858 6.99984 3.16702 6.99984 3.64004H8.99984ZM7.4631 1.67152L6.55012 2.07801L7.36361 3.9051L8.27659 3.49861L7.4631 1.67152ZM6.04255 3.39655C6.03462 3.37867 6.02555 3.35599 6.01702 3.3297C6.0086 3.30374 6.00276 3.28062 5.9988 3.26175C5.99166 3.22769 5.99172 3.21225 5.99329 3.23424C5.9948 3.2553 5.99665 3.29453 5.99796 3.36437C5.99924 3.43289 5.99986 3.52198 5.99986 3.64004H7.99986C7.99986 3.40308 7.99775 3.2249 7.98818 3.09136C7.97732 2.93974 7.95277 2.77075 7.87118 2.58655L6.04255 3.39655ZM6.99986 4.64004H7.99984V2.64004H6.99986V4.64004ZM5.83395 3.26845C5.92198 3.34777 5.98804 3.40808 6.03838 3.45511C6.08971 3.50306 6.11779 3.53079 6.13257 3.54612C6.14808 3.5622 6.13622 3.55161 6.1153 3.52299C6.10368 3.50709 6.09006 3.48678 6.07607 3.46248C6.06188 3.43786 6.05081 3.4152 6.04255 3.39655L7.87118 2.58655C7.78817 2.39916 7.67693 2.26638 7.57216 2.15775C7.47961 2.06178 7.34861 1.94111 7.1728 1.78268L5.83395 3.26845ZM7.36384 3.90499L8.27732 3.498L7.46337 1.67112L6.54989 2.07811L7.36384 3.90499ZM8.78368 2.17734C8.53788 1.62605 8.07462 1.24949 7.84174 1.03966L6.50297 2.52549C6.85609 2.84366 6.92282 2.91508 6.95701 2.99178L8.78368 2.17734ZM4.23242 2.00009C4.33447 2.00009 4.41139 2.00056 4.47055 2.00153C4.53086 2.00252 4.56452 2.00392 4.58244 2.00505C4.6011 2.00623 4.58731 2.00623 4.55714 2.00068C4.54046 1.99762 4.52004 1.9931 4.49704 1.9866C4.47374 1.98001 4.45348 1.97298 4.43737 1.9668L5.15344 0.0993858C4.9889 0.036291 4.84096 0.0173765 4.70826 0.00901168C4.59174 0.00166713 4.43699 9.35174e-05 4.23242 9.35174e-05V2.00009ZM5.51092 -0.834293C5.02095 -1.02187 4.50922 -0.999887 4.23242 -0.999887V1.00011C4.6406 1.00011 4.72686 1.0071 4.79588 1.03352L5.51092 -0.834293ZM6.5745 -0.100612C6.3682 -0.286603 6.00235 -0.645284 5.51238 -0.833734L4.79442 1.03296C4.86344 1.0595 4.93358 1.11281 5.23527 1.38481L6.5745 -0.100612ZM4.43737 1.9668C4.42075 1.96043 4.40062 1.95193 4.37861 1.94108C4.3569 1.93038 4.33855 1.91995 4.32407 1.91102C4.29792 1.89491 4.2877 1.88567 4.30259 1.89749C4.31684 1.9088 4.34294 1.93044 4.38858 1.97023C4.43335 2.00925 4.49096 2.0605 4.56693 2.12888L5.90486 0.642292C5.75305 0.505658 5.63718 0.403375 5.5461 0.331067C5.44281 0.249076 5.31954 0.163075 5.15344 0.0993858L4.43737 1.9668ZM5.49989 10.9999C5.93039 10.9999 6.4016 11.003 6.79665 10.9501L6.53108 8.96777C6.29915 8.99884 5.98438 8.99992 5.49989 8.99992V10.9999ZM6.79702 10.95C7.23476 10.8912 7.79634 10.7396 8.26815 10.2668L6.85255 8.85401C6.81537 8.89127 6.74796 8.93863 6.53071 8.96782L6.79702 10.95ZM6.14626 8.14633C6.17241 8.12018 6.20975 8.08691 6.25745 8.05467C6.30349 8.02356 6.34521 8.00284 6.37723 7.98961C6.43459 7.96592 6.45429 7.96908 6.39567 7.97705L6.66508 9.95882C6.99355 9.91417 7.30661 9.81441 7.56047 9.56054L6.14626 8.14633ZM6.39737 7.97682C6.24866 7.99678 6.015 7.99993 5.49989 7.99993V9.99994C5.95576 9.99994 6.35009 10.0011 6.66338 9.95905L6.39737 7.97682ZM5.99986 7.49996C5.99986 8.01507 5.99671 8.24874 5.97675 8.39744L7.95898 8.66345C8.00102 8.35016 7.99986 7.95584 7.99986 7.49996H5.99986ZM5.97698 8.39574C5.96901 8.45436 5.96585 8.43466 5.98954 8.37731C6.00277 8.34528 6.02349 8.30356 6.0546 8.25753C6.08684 8.20982 6.12011 8.17249 6.14626 8.14633L7.56047 9.56054C7.81433 9.30668 7.9141 8.99362 7.95875 8.66515L5.97698 8.39574ZM8.26746 10.2675C8.73922 9.79577 8.89103 9.23557 8.94994 8.7971L6.96775 8.53079C6.93866 8.7473 6.89147 8.81509 6.85325 8.85332L8.26746 10.2675ZM8.95002 8.79652C9.00291 8.40111 8.99984 7.93061 8.99984 7.49996H6.99984C6.99984 7.9843 6.99878 8.29878 6.96767 8.53136L8.95002 8.79652ZM-0.999998 7.49996C-0.999998 7.93046 -1.00307 8.40167 -0.950144 8.79673L1.03215 8.53116C1.00107 8.29923 1 7.98445 1 7.49996H-0.999998ZM-0.950094 8.7971C-0.891283 9.23483 -0.739654 9.79642 -0.266919 10.2682L1.14591 8.85262C1.10865 8.81544 1.06128 8.74803 1.0321 8.53079L-0.950094 8.7971ZM1.85359 8.14633C1.87974 8.17249 1.91301 8.20982 1.94525 8.25753C1.97636 8.30356 1.99708 8.34528 2.0103 8.37731C2.034 8.43466 2.03084 8.45436 2.02287 8.39574L0.041096 8.66515C0.0857495 8.99362 0.185512 9.30668 0.439373 9.56054L1.85359 8.14633ZM2.02306 8.39715C2.00315 8.24916 1.99998 8.01527 1.99998 7.49996H-1.77622e-05C-1.77622e-05 7.95564 -0.00118975 8.35074 0.0409046 8.66373L2.02306 8.39715ZM2.49995 7.99993C1.98484 7.99993 1.75118 7.99678 1.60248 7.97682L1.33647 9.95905C1.64975 10.0011 2.04408 9.99994 2.49995 9.99994V7.99993ZM1.60418 7.97705C1.54556 7.96908 1.56526 7.96592 1.62261 7.98961C1.65464 8.00284 1.69636 8.02356 1.74239 8.05467C1.7901 8.08691 1.82743 8.12018 1.85359 8.14633L0.439373 9.56054C0.693233 9.81441 1.0063 9.91417 1.33477 9.95882L1.60418 7.97705ZM-0.267613 10.2675C0.204148 10.7393 0.764347 10.8911 1.20282 10.95L1.46913 8.96782C1.25262 8.93873 1.18483 8.89155 1.1466 8.85332L-0.267613 10.2675ZM1.2034 10.9501C1.5988 11.003 2.06931 10.9999 2.49995 10.9999V8.99992C2.01561 8.99992 1.70113 8.99885 1.46855 8.96774L1.2034 10.9501ZM1.99998 2.50006C1.99998 1.98496 2.00314 1.75129 2.0231 1.60259L0.0408665 1.33658C-0.00117646 1.64987 -1.77622e-05 2.04419 -1.77622e-05 2.50006H1.99998ZM2.02287 1.60429C2.03084 1.54567 2.034 1.56537 2.0103 1.62272C1.99708 1.65475 1.97636 1.69647 1.94525 1.7425C1.91301 1.79021 1.87974 1.82754 1.85359 1.8537L0.439373 0.439484C0.185512 0.693344 0.0857495 1.00641 0.041096 1.33488L2.02287 1.60429ZM-0.267613 -0.267502C-0.739374 0.204258 -0.891184 0.764457 -0.950094 1.20293L1.0321 1.46924C1.06119 1.25273 1.10837 1.18494 1.1466 1.14671L-0.267613 -0.267502ZM-0.950172 1.20351C-1.00306 1.59892 -0.999998 2.06942 -0.999998 2.50006H1C1 2.01572 1.00106 1.70124 1.03217 1.46866L-0.950172 1.20351ZM2.49995 -0.999887C2.06946 -0.999887 1.59825 -1.00296 1.20319 -0.950032L1.46876 1.03226C1.70069 1.00119 2.01546 1.00011 2.49995 1.00011V-0.999887ZM1.20282 -0.949983C0.765082 -0.891172 0.203501 -0.739543 -0.268307 -0.266808L1.14729 1.14602C1.18448 1.10876 1.25188 1.0614 1.46913 1.03221L1.20282 -0.949983ZM1.85359 1.8537C1.82743 1.87985 1.7901 1.91312 1.74239 1.94536C1.69636 1.97647 1.65464 1.99719 1.62261 2.01042C1.56526 2.03411 1.54556 2.03095 1.60418 2.02298L1.33477 0.0412073C1.0063 0.0858608 0.693233 0.185624 0.439373 0.439484L1.85359 1.8537ZM1.60276 2.02317C1.75076 2.00327 1.98465 2.00009 2.49995 2.00009V9.35174e-05C2.04428 9.35174e-05 1.64917 -0.00107847 1.33618 0.0410159L1.60276 2.02317Z" fill="url(#paint0_linear_1_1098)" mask="url(#path-1-inside-1_1_1098)"/>
</g>
<g id="Group">
<path id="Vector_2" d="M4.5 0.5V1.49998C4.5 2.44296 4.5 2.91395 4.79299 3.20695C5.08599 3.49994 5.55698 3.49994 6.49996 3.49994H7.49994" stroke="url(#paint1_linear_1_1098)"/>
<path id="Vector_3" d="M2.5 7.7499H3.99997M2.5 5.24995H5.49994M2.5 2.75H2.99999" stroke="url(#paint2_linear_1_1098)" stroke-linecap="round" stroke-linejoin="round"/>
</g>
</g>
<defs>
<linearGradient id="paint0_linear_1_1098" x1="4" y1="0" x2="4" y2="9.99992" gradientUnits="userSpaceOnUse">
<stop stop-color="#2D73F5"/>
<stop offset="1" stop-color="#40BCFE"/>
</linearGradient>
<linearGradient id="paint1_linear_1_1098" x1="5.99997" y1="0.5" x2="5.99997" y2="3.49994" gradientUnits="userSpaceOnUse">
<stop stop-color="#2D73F5"/>
<stop offset="1" stop-color="#40BCFE"/>
</linearGradient>
<linearGradient id="paint2_linear_1_1098" x1="3.99997" y1="2.75" x2="3.99997" y2="7.7499" gradientUnits="userSpaceOnUse">
<stop stop-color="#2D73F5"/>
<stop offset="1" stop-color="#40BCFE"/>
</linearGradient>
</defs>
</svg>
