<svg width="24" height="24" viewBox="0 0 24 24" fill="none" xmlns="http://www.w3.org/2000/svg">
<g id="SVG">
<path id="Vector" d="M13 3C8.03001 3 4.00001 7.03 4.00001 12H2.20712C1.76166 12 1.53858 12.5386 1.85356 12.8536L4.54605 15.546C4.73752 15.7375 5.04663 15.7418 5.2433 15.5556L8.08806 12.8631C8.41641 12.5524 8.19647 12 7.74436 12H6.00001C6.00001 8.13 9.13001 5 13 5C16.87 5 20 8.13 20 12C20 15.87 16.87 19 13 19C11.4314 19 9.98176 18.4782 8.8174 17.601C8.37412 17.267 7.74105 17.259 7.34861 17.6514C6.95726 18.0428 6.95414 18.6823 7.38599 19.0284C8.92449 20.2615 10.8708 21 13 21C17.97 21 22 16.97 22 12C22 7.03 17.97 3 13 3ZM12 8V13L16.28 15.54L17 14.33L13.5 12.25V8H12Z" fill="white"/>
</g>
</svg>
