<svg width="17" height="17" viewBox="0 0 17 17" fill="none" xmlns="http://www.w3.org/2000/svg">
<g id="&#240;&#159;&#166;&#134; icon &#34;tray and arrow right&#34;">
<g id="Clip path group">
<mask id="mask0_1_1091" style="mask-type:luminance" maskUnits="userSpaceOnUse" x="0" y="0" width="17" height="17">
<g id="a">
<path id="Vector" d="M0 8.09937L8.76277 6.10506e-05L16.8621 8.76283L8.0993 16.8621L0 8.09937Z" fill="white"/>
</g>
</mask>
<g mask="url(#mask0_1_1091)">
<g id="Group">
<path id="Vector_2" d="M6.78757 9.94984L11.7166 5.39399M11.7166 5.39399L11.6876 8.80601M11.7166 5.39399L8.31287 5.15486" stroke="url(#paint0_linear_1_1091)" stroke-linecap="round" stroke-linejoin="round"/>
<path id="Vector_3" d="M4.6636 5.82008L3.56825 6.83249C2.87964 7.46896 2.5357 7.78686 2.5195 8.19857C2.5033 8.61029 2.8212 8.95423 3.45767 9.64283L6.83238 13.294C7.46885 13.9826 7.78675 14.3265 8.19847 14.3427C8.61018 14.3589 8.95412 14.041 9.64273 13.4046L10.7381 12.3922" stroke="url(#paint1_linear_1_1091)" stroke-linecap="round"/>
</g>
</g>
</g>
</g>
<defs>
<linearGradient id="paint0_linear_1_1091" x1="7.56475" y1="5.84634" x2="10.9395" y2="9.49749" gradientUnits="userSpaceOnUse">
<stop stop-color="#2D73F5"/>
<stop offset="1" stop-color="#40BCFE"/>
</linearGradient>
<linearGradient id="paint1_linear_1_1091" x1="3.38569" y1="7.00122" x2="9.46017" y2="13.5733" gradientUnits="userSpaceOnUse">
<stop stop-color="#2D73F5"/>
<stop offset="1" stop-color="#40BCFE"/>
</linearGradient>
</defs>
</svg>
